<?xml version="1.0" encoding="UTF-8" standalone="no"?>
<!-- Created with Inkscape (http://www.inkscape.org/) -->

<svg
   xmlns:dc="http://purl.org/dc/elements/1.1/"
   xmlns:cc="http://creativecommons.org/ns#"
   xmlns:rdf="http://www.w3.org/1999/02/22-rdf-syntax-ns#"
   xmlns:svg="http://www.w3.org/2000/svg"
   xmlns="http://www.w3.org/2000/svg"
   xmlns:sodipodi="http://sodipodi.sourceforge.net/DTD/sodipodi-0.dtd"
   xmlns:inkscape="http://www.inkscape.org/namespaces/inkscape"
   width="430"
   height="430"
   id="svg2"
   version="1.1"
   inkscape:version="0.48.4 r9939"
   sodipodi:docname="wheel.svg">
  <defs
     id="defs4">
    <filter
       inkscape:collect="always"
       id="filter3904"
       color-interpolation-filters="sRGB">
      <feGaussianBlur
         inkscape:collect="always"
         stdDeviation="17.062171"
         id="feGaussianBlur3906" />
    </filter>
  </defs>
  <sodipodi:namedview
     id="base"
     pagecolor="#ffffff"
     bordercolor="#666666"
     borderopacity="1.0"
     inkscape:pageopacity="0.0"
     inkscape:pageshadow="2"
     inkscape:zoom="0.49497475"
     inkscape:cx="121.70216"
     inkscape:cy="265.70801"
     inkscape:document-units="px"
     inkscape:current-layer="layer1"
     showgrid="false"
     inkscape:window-width="1366"
     inkscape:window-height="744"
     inkscape:window-x="0"
     inkscape:window-y="24"
     inkscape:window-maximized="1" />
  <metadata
     id="metadata7">
    <rdf:RDF>
      <cc:Work
         rdf:about="">
        <dc:format>image/svg+xml</dc:format>
        <dc:type
           rdf:resource="http://purl.org/dc/dcmitype/StillImage" />
        <dc:title></dc:title>
      </cc:Work>
    </rdf:RDF>
  </metadata>
  <g
     inkscape:label="Layer 1"
     inkscape:groupmode="layer"
     id="layer1"
     transform="translate(0,-622.36218)">
    <path
       sodipodi:type="arc"
       style="opacity:0.73662552;fill:#0e3414;fill-opacity:1;stroke-width:0;stroke-miterlimit:4;stroke-dasharray:none;filter:url(#filter3904)"
       id="path3047"
       sodipodi:cx="424.26407"
       sodipodi:cy="466.47369"
       sodipodi:rx="301.02545"
       sodipodi:ry="301.02545"
       d="m 725.28952,466.47369 a 301.02545,301.02545 0 1 1 -602.0509,0 301.02545,301.02545 0 1 1 602.0509,0 z"
       transform="matrix(0.66439565,0,0,0.66439565,-68.726963,532.72346)" />
    <path
       sodipodi:type="star"
       style="opacity:0.73662552;fill:#76e7ff;fill-opacity:0.41552513;stroke-width:0;stroke-miterlimit:4;stroke-dasharray:none"
       id="path3902"
       sodipodi:sides="8"
       sodipodi:cx="-101.01525"
       sodipodi:cy="86.656349"
       sodipodi:r1="141.65205"
       sodipodi:r2="7.082603"
       sodipodi:arg1="1.6278771"
       sodipodi:arg2="2.0205762"
       inkscape:flatsided="false"
       inkscape:rounded="0.002"
       inkscape:randomized="0"
       d="m -109.09647,228.0777 c -0.26983,-0.0154 5.24533,-134.925658 5.00193,-135.043164 -0.24339,-0.117505 -102.45509,88.109224 -102.63499,87.907524 -0.1799,-0.2017 99.11585,-91.697842 99.02684,-91.953034 -0.089,-0.255192 -134.74933,-10.144064 -134.73391,-10.413896 0.0154,-0.269831 134.92566,5.245326 135.04316,5.001935 0.11751,-0.243391 -88.10922,-102.455099 -87.90752,-102.634996 0.2017,-0.179897 91.69784,99.115853 91.95303,99.026838 0.25519,-0.08902 10.144066,-134.749327 10.413898,-134.733908 0.269831,0.01542 -5.245326,134.925658 -5.001935,135.043163 C -97.692576,80.395667 4.5191323,-7.8310643 4.699029,-7.6293619 4.8789258,-7.4276595 -94.416824,84.06848 -94.327809,84.323672 -94.238794,84.578865 40.421518,94.467737 40.406099,94.737568 40.39068,95.007399 -94.519559,89.492242 -94.637064,89.735633 -94.754569,89.979025 -6.5278376,192.19073 -6.7295401,192.37063 -6.9312425,192.55053 -98.427382,93.254777 -98.682574,93.343791 -98.937767,93.432806 -108.82664,228.09312 -109.09647,228.0777 z"
       transform="matrix(1.4127694,-0.06389734,0.06389734,1.4127694,346.32638,717.76652)" />
  </g>
</svg>
